<?xml version="1.0" standalone="no"?>
<!DOCTYPE svg PUBLIC "-//W3C//DTD SVG 20010904//EN"
 "http://www.w3.org/TR/2001/REC-SVG-20010904/DTD/svg10.dtd">
<svg version="1.0" xmlns="http://www.w3.org/2000/svg"
 width="275.000000pt" height="200.000000pt" viewBox="0 0 275.000000 200.000000"
 preserveAspectRatio="xMidYMid meet">

<g transform="translate(0.000000,200.000000) scale(0.100000,-0.100000)"
fill="#000000" stroke="none">
<path d="M2056 1315 c-13 -34 27 -72 63 -60 27 8 32 29 15 54 -18 25 -69 29
-78 6z"/>
<path d="M2309 1188 c77 -76 103 -156 81 -247 -22 -92 -117 -173 -230 -195
-32 -7 -30 -4 20 23 91 51 150 133 150 208 0 77 -72 171 -148 194 -36 10 -43
9 -70 -10 -17 -11 -44 -42 -61 -68 -25 -37 -31 -42 -31 -24 0 30 26 80 63 119
41 43 23 41 -37 -6 -86 -65 -130 -195 -94 -281 l14 -35 27 46 c32 56 102 119
162 147 70 33 73 25 8 -22 -89 -66 -172 -183 -158 -224 9 -27 73 -72 119 -84
54 -15 162 -7 204 15 97 50 163 177 142 273 -21 92 -80 167 -156 199 -51 21
-51 17 -5 -28z"/>
<path d="M550 1181 c0 -5 11 -12 25 -15 31 -8 32 -29 4 -133 -52 -199 -72
-254 -102 -279 -43 -36 -78 -31 -91 14 -6 16 -15 22 -37 22 -24 0 -29 -4 -29
-23 0 -13 8 -31 18 -40 24 -22 122 -23 168 -1 56 27 69 57 148 354 15 52 26
98 26 103 0 4 -29 7 -65 7 -36 0 -65 -4 -65 -9z"/>
<path d="M760 1182 c0 -5 11 -13 25 -16 17 -4 25 -13 25 -29 0 -12 -25 -110
-54 -217 -30 -107 -52 -198 -49 -203 3 -5 52 -7 108 -5 151 7 208 39 233 132
14 49 -1 90 -39 108 l-29 14 35 17 c46 22 75 71 75 124 0 67 -23 77 -192 81
-88 3 -138 1 -138 -6z m238 -38 c44 -31 18 -124 -43 -150 -43 -18 -115 -19
-115 -1 0 28 41 151 52 159 22 13 82 9 106 -8z m-36 -221 c16 -15 19 -27 15
-66 -7 -76 -60 -117 -152 -117 -38 0 -45 3 -45 20 0 20 38 168 48 184 8 15
113 -1 134 -21z"/>
<path d="M1160 1180 c0 -5 8 -10 19 -10 46 0 44 -20 -13 -231 -31 -111 -56
-208 -56 -216 0 -7 7 -13 15 -13 15 0 27 37 85 255 43 161 41 155 49 155 4 0
13 -88 19 -196 7 -108 15 -200 18 -205 3 -5 16 -9 28 -9 19 0 45 36 155 215
73 118 134 215 135 215 3 0 -52 -208 -92 -348 -17 -61 -19 -74 -7 -78 42 -16
48 -4 107 211 81 296 77 265 29 265 -46 0 -43 4 -206 -258 -48 -78 -90 -141
-91 -139 -2 2 -8 66 -14 142 -5 77 -13 166 -16 198 l-6 57 -79 0 c-46 0 -79
-4 -79 -10z"/>
<path d="M1760 1180 c-8 -5 -15 -23 -15 -40 l-1 -30 68 0 c39 0 68 4 68 10 0
6 -9 10 -20 10 -13 0 -20 7 -20 20 0 32 -48 50 -80 30z m65 -30 c0 -18 -52
-27 -67 -12 -17 17 2 33 35 30 20 -2 32 -8 32 -18z"/>
<path d="M1746 1071 c5 -5 25 -11 44 -13 53 -5 46 -31 -10 -39 l-45 -7 50 2
c49 1 50 2 52 34 l1 32 -51 0 c-31 0 -47 -4 -41 -9z"/>
<path d="M1752 968 c-30 -30 -3 -72 44 -66 34 4 53 31 38 56 -13 21 -64 28
-82 10z m78 -28 c0 -17 -7 -20 -40 -20 -33 0 -40 3 -40 20 0 17 7 20 40 20 33
0 40 -3 40 -20z"/>
<path d="M1743 877 c4 -10 7 -23 7 -28 0 -5 20 -9 45 -9 25 0 45 5 45 10 0 6
-14 10 -32 10 -17 0 -40 8 -51 18 -20 16 -20 16 -14 -1z"/>
<path d="M1713 803 c-7 -3 -13 -18 -13 -34 0 -39 38 -64 84 -55 42 8 58 27 54
63 -3 24 -8 28 -40 31 -36 3 -38 2 -37 -25 1 -17 3 -21 6 -10 7 26 63 24 63
-3 0 -35 -80 -56 -108 -28 -16 16 -15 45 1 51 6 2 10 7 7 9 -3 3 -11 3 -17 1z"/>
</g>
</svg>
